<mxfile host="app.diagrams.net" modified="2023-07-21T17:14:23.167Z" agent="Mozilla/5.0 (Macintosh; Intel Mac OS X 10_15_7) AppleWebKit/537.36 (KHTML, like Gecko) Chrome/113.0.0.0 Safari/537.36" etag="r5TYI9QzHKtUlYixmRo-" version="21.6.3" type="device">
  <diagram name="Page-1" id="kQRdx2GSngxnMytTKtdT">
    <mxGraphModel dx="1060" dy="589" grid="1" gridSize="10" guides="1" tooltips="1" connect="1" arrows="1" fold="1" page="1" pageScale="1" pageWidth="827" pageHeight="1169" math="0" shadow="0">
      <root>
        <mxCell id="0" />
        <mxCell id="1" parent="0" />
        <mxCell id="reJ4U9hJ3FFSCR4g5qVH-1" value="&lt;font style=&quot;font-size: 14px;&quot;&gt;&lt;b&gt;Product module&lt;/b&gt;&lt;/font&gt;" style="rounded=1;whiteSpace=wrap;html=1;align=center;verticalAlign=top;fillColor=#f8cecc;strokeColor=#b85450;gradientColor=#ea6b66;" vertex="1" parent="1">
          <mxGeometry x="309" y="100" width="311" height="220" as="geometry" />
        </mxCell>
        <mxCell id="reJ4U9hJ3FFSCR4g5qVH-2" value="&lt;font style=&quot;font-size: 10px;&quot;&gt;Product List Component&lt;/font&gt;" style="rounded=0;whiteSpace=wrap;html=1;verticalAlign=top;fillColor=#f5f5f5;gradientColor=#b3b3b3;strokeColor=#666666;" vertex="1" parent="1">
          <mxGeometry x="320" y="150" width="120" height="50" as="geometry" />
        </mxCell>
        <mxCell id="reJ4U9hJ3FFSCR4g5qVH-3" value="&lt;font style=&quot;font-size: 10px;&quot;&gt;Product details Component&lt;/font&gt;" style="rounded=0;whiteSpace=wrap;html=1;verticalAlign=top;fillColor=#f5f5f5;gradientColor=#b3b3b3;strokeColor=#666666;" vertex="1" parent="1">
          <mxGeometry x="470" y="150" width="130" height="50" as="geometry" />
        </mxCell>
        <mxCell id="reJ4U9hJ3FFSCR4g5qVH-4" value="&lt;font style=&quot;font-size: 8px;&quot;&gt;script&lt;/font&gt;" style="rounded=0;whiteSpace=wrap;html=1;fillColor=#ffe6cc;strokeColor=#d79b00;" vertex="1" parent="1">
          <mxGeometry x="330" y="180" width="30" height="10" as="geometry" />
        </mxCell>
        <mxCell id="reJ4U9hJ3FFSCR4g5qVH-5" value="&lt;font style=&quot;font-size: 10px;&quot;&gt;css&lt;/font&gt;" style="rounded=0;whiteSpace=wrap;html=1;fillColor=#fff2cc;strokeColor=#d6b656;" vertex="1" parent="1">
          <mxGeometry x="365" y="180" width="30" height="10" as="geometry" />
        </mxCell>
        <mxCell id="reJ4U9hJ3FFSCR4g5qVH-6" value="&lt;font style=&quot;font-size: 10px;&quot;&gt;html&lt;/font&gt;" style="rounded=0;whiteSpace=wrap;html=1;fillColor=#f8cecc;strokeColor=#b85450;" vertex="1" parent="1">
          <mxGeometry x="399" y="180" width="30" height="10" as="geometry" />
        </mxCell>
        <mxCell id="reJ4U9hJ3FFSCR4g5qVH-9" value="&lt;font style=&quot;font-size: 10px;&quot;&gt;html&lt;/font&gt;" style="rounded=0;whiteSpace=wrap;html=1;fillColor=#f8cecc;strokeColor=#b85450;" vertex="1" parent="1">
          <mxGeometry x="560" y="180" width="30" height="10" as="geometry" />
        </mxCell>
        <mxCell id="reJ4U9hJ3FFSCR4g5qVH-10" value="&lt;font style=&quot;font-size: 10px;&quot;&gt;css&lt;/font&gt;" style="rounded=0;whiteSpace=wrap;html=1;fillColor=#fff2cc;strokeColor=#d6b656;" vertex="1" parent="1">
          <mxGeometry x="520" y="180" width="30" height="10" as="geometry" />
        </mxCell>
        <mxCell id="reJ4U9hJ3FFSCR4g5qVH-11" value="&lt;font style=&quot;font-size: 8px;&quot;&gt;script&lt;/font&gt;" style="rounded=0;whiteSpace=wrap;html=1;fillColor=#ffe6cc;strokeColor=#d79b00;" vertex="1" parent="1">
          <mxGeometry x="480" y="180" width="30" height="10" as="geometry" />
        </mxCell>
        <mxCell id="reJ4U9hJ3FFSCR4g5qVH-12" value="service" style="shape=parallelogram;perimeter=parallelogramPerimeter;whiteSpace=wrap;html=1;fixedSize=1;size=15.5;fillColor=#dae8fc;gradientColor=#7ea6e0;strokeColor=#6c8ebf;" vertex="1" parent="1">
          <mxGeometry x="404.5" y="250" width="120" height="40" as="geometry" />
        </mxCell>
        <mxCell id="reJ4U9hJ3FFSCR4g5qVH-16" value="" style="endArrow=classic;startArrow=classic;html=1;rounded=0;exitX=0.196;exitY=0.455;exitDx=0;exitDy=0;exitPerimeter=0;" edge="1" parent="1" source="reJ4U9hJ3FFSCR4g5qVH-1">
          <mxGeometry width="50" height="50" relative="1" as="geometry">
            <mxPoint x="390" y="300" as="sourcePoint" />
            <mxPoint x="440" y="250" as="targetPoint" />
          </mxGeometry>
        </mxCell>
        <mxCell id="reJ4U9hJ3FFSCR4g5qVH-19" value="" style="endArrow=classic;startArrow=classic;html=1;rounded=0;entryX=0.75;entryY=0;entryDx=0;entryDy=0;exitX=0.75;exitY=0;exitDx=0;exitDy=0;" edge="1" parent="1" source="reJ4U9hJ3FFSCR4g5qVH-12">
          <mxGeometry width="50" height="50" relative="1" as="geometry">
            <mxPoint x="582.5" y="270" as="sourcePoint" />
            <mxPoint x="530" y="200" as="targetPoint" />
          </mxGeometry>
        </mxCell>
        <mxCell id="reJ4U9hJ3FFSCR4g5qVH-21" value="&lt;b&gt;BACKEND&lt;/b&gt;" style="rounded=1;whiteSpace=wrap;html=1;fillColor=#d5e8d4;gradientColor=#97d077;strokeColor=#82b366;" vertex="1" parent="1">
          <mxGeometry x="324.5" y="390" width="280" height="60" as="geometry" />
        </mxCell>
        <mxCell id="reJ4U9hJ3FFSCR4g5qVH-22" value="" style="endArrow=classic;startArrow=classic;html=1;rounded=0;entryX=0.5;entryY=1;entryDx=0;entryDy=0;exitX=0.5;exitY=0;exitDx=0;exitDy=0;" edge="1" parent="1" source="reJ4U9hJ3FFSCR4g5qVH-21" target="reJ4U9hJ3FFSCR4g5qVH-1">
          <mxGeometry width="50" height="50" relative="1" as="geometry">
            <mxPoint x="390" y="300" as="sourcePoint" />
            <mxPoint x="440" y="250" as="targetPoint" />
          </mxGeometry>
        </mxCell>
        <mxCell id="reJ4U9hJ3FFSCR4g5qVH-23" value="" style="image;html=1;image=img/lib/clip_art/computers/Database_128x128.png" vertex="1" parent="1">
          <mxGeometry x="424.5" y="520" width="80" height="80" as="geometry" />
        </mxCell>
        <mxCell id="reJ4U9hJ3FFSCR4g5qVH-24" value="" style="endArrow=classic;startArrow=classic;html=1;rounded=0;entryX=0.5;entryY=1;entryDx=0;entryDy=0;exitX=0.5;exitY=0;exitDx=0;exitDy=0;" edge="1" parent="1" source="reJ4U9hJ3FFSCR4g5qVH-23" target="reJ4U9hJ3FFSCR4g5qVH-21">
          <mxGeometry width="50" height="50" relative="1" as="geometry">
            <mxPoint x="390" y="380" as="sourcePoint" />
            <mxPoint x="440" y="330" as="targetPoint" />
          </mxGeometry>
        </mxCell>
      </root>
    </mxGraphModel>
  </diagram>
</mxfile>
